<svg width="163" height="186" viewBox="0 0 163 186" fill="none" xmlns="http://www.w3.org/2000/svg">
<path d="M24.7423 148.612C24.8985 148.241 25.2616 148 25.664 148H133.811C134.226 148 134.598 148.256 134.746 148.643L148.482 184.643C148.732 185.298 148.249 186 147.548 186H10.5061C9.7909 186 9.30691 185.271 9.58445 184.612L24.7423 148.612Z" fill="#E7BCF5"/>
<path d="M40.2462 110.622C40.3997 110.246 40.7657 110 41.1721 110H118.844C119.242 110 119.603 110.236 119.761 110.602L135.393 146.602C135.68 147.262 135.195 148 134.475 148H26.4879C25.7775 148 25.2937 147.28 25.5619 146.622L40.2462 110.622Z" fill="#D79FEA"/>
<path d="M55.291 72.7219C55.4148 72.2943 55.8064 72 56.2516 72H103.844C104.242 72 104.603 72.2364 104.761 72.6017L120.393 108.602C120.68 109.262 120.196 110 119.476 110H45.8305C45.1647 110 44.6848 109.362 44.87 108.722L55.291 72.7219Z" fill="#BF81D3"/>
<path d="M74.7721 25.6838C74.9082 25.2754 75.2903 25 75.7208 25H88.2792C88.7097 25 89.0918 25.2754 89.2279 25.6838L104.561 71.6838C104.777 72.3313 104.295 73 103.613 73H60.3874C59.7049 73 59.2229 72.3313 59.4387 71.6838L74.7721 25.6838Z" fill="#9A5EAE"/>
<path d="M81.5 14.9501L153.82 180H9.17974L81.5 14.9501Z" stroke="#B051D0" stroke-width="12"/>
</svg>
