<svg width="313" height="305" viewBox="0 0 313 305" fill="none" xmlns="http://www.w3.org/2000/svg">
<path d="M91.5 229H223L171.671 293.956C168.405 298.089 163.427 300.5 158.16 300.5V300.5C152.995 300.5 148.103 298.182 144.833 294.184L91.5 229Z" fill="#E7BCF5"/>
<path d="M30 153H280.5L224.5 229H93L30 153Z" fill="#D79FEA"/>
<path d="M21 77H287.5L301.5 115L279.5 153H31L10.5 115L21 77Z" fill="#BF81D3"/>
<path d="M63.0146 25.8274C72.5149 14.5254 86.5245 8 101.289 8H207.087C221.346 8 234.926 14.0874 244.413 24.7315L291 77H20L63.0146 25.8274Z" fill="#9A5EAE"/>
<path d="M78.6253 14.0383L12.5621 103.005C9.86962 106.63 9.94159 111.611 12.7377 115.158L151.255 290.853C155.305 295.99 163.114 295.92 167.071 290.711L300.426 115.169C303.132 111.607 303.143 106.681 300.453 103.107L233.375 13.9864C231.486 11.4763 228.527 10 225.385 10H86.6538C83.4894 10 80.5118 11.4977 78.6253 14.0383Z" stroke="#B051D0" stroke-width="20"/>
</svg>
